<?xml version="1.0" encoding="UTF-8" standalone="no"?>
<!-- Created with Inkscape (http://www.inkscape.org/) -->

<svg
   xmlns:dc="http://purl.org/dc/elements/1.1/"
   xmlns:cc="http://creativecommons.org/ns#"
   xmlns:rdf="http://www.w3.org/1999/02/22-rdf-syntax-ns#"
   xmlns:svg="http://www.w3.org/2000/svg"
   xmlns="http://www.w3.org/2000/svg"
   xmlns:sodipodi="http://sodipodi.sourceforge.net/DTD/sodipodi-0.dtd"
   xmlns:inkscape="http://www.inkscape.org/namespaces/inkscape"
   id="svg2"
   version="1.1"
   inkscape:version="0.91 r13725"
   xml:space="preserve"
   width="185.32875"
   height="38.864876"
   viewBox="0 0 185.32875 38.864876"
   sodipodi:docname="2016.10.04_CI-logo.svg"><metadata
     id="metadata8"><rdf:RDF><cc:Work
         rdf:about=""><dc:format>image/svg+xml</dc:format><dc:type
           rdf:resource="http://purl.org/dc/dcmitype/StillImage" /><dc:title></dc:title></cc:Work></rdf:RDF></metadata><defs
     id="defs6"><clipPath
       clipPathUnits="userSpaceOnUse"
       id="clipPath16"><path
         d="m 0,31.092 148.263,0 L 148.263,0 0,0 0,31.092 Z"
         id="path18"
         inkscape:connector-curvature="0" /></clipPath></defs><sodipodi:namedview
     pagecolor="#ffffff"
     bordercolor="#666666"
     borderopacity="1"
     objecttolerance="10"
     gridtolerance="10"
     guidetolerance="10"
     inkscape:pageopacity="0"
     inkscape:pageshadow="2"
     inkscape:window-width="1327"
     inkscape:window-height="747"
     id="namedview4"
     showgrid="false"
     inkscape:zoom="1.8345777"
     inkscape:cx="26.981686"
     inkscape:cy="19.432438"
     inkscape:window-x="39"
     inkscape:window-y="21"
     inkscape:window-maximized="1"
     inkscape:current-layer="g14" /><g
     id="g10"
     inkscape:groupmode="layer"
     inkscape:label="2016.10.04_CI-logo"
     transform="matrix(1.25,0,0,-1.25,0,38.864875)"><g
       id="g12"><g
         id="g14"
         clip-path="url(#clipPath16)"><g
           id="g20"
           transform="translate(47.0221,24.8306)"><path
             d="m 0,0 c -2.165,0 -3.905,-1.685 -3.905,-3.809 0,-2.11 1.74,-3.823 3.905,-3.823 1.055,0 2.082,0.438 2.836,1.151 L 3.508,-7.208 C 2.563,-8.098 1.274,-8.66 -0.055,-8.66 c -2.768,0 -4.961,2.138 -4.961,4.851 0,2.685 2.22,4.809 5.002,4.809 1.316,0 2.59,-0.534 3.508,-1.397 L 2.836,-1.192 C 2.096,-0.452 1.055,0 0,0"
             style="fill:#cc1417;fill-opacity:1;fill-rule:nonzero;stroke:none"
             id="path22"
             inkscape:connector-curvature="0" /></g><g
           id="g24"
           transform="translate(52.7614,21.0079)"><path
             d="m 0,0 c 0,-2.124 1.781,-3.837 3.919,-3.837 2.138,0 3.892,1.713 3.892,3.837 0,2.124 -1.754,3.809 -3.892,3.809 C 1.781,3.809 0,2.124 0,0 m 8.934,0 c 0,-2.699 -2.22,-4.837 -5.015,-4.837 -2.81,0 -5.029,2.138 -5.029,4.837 0,2.699 2.219,4.823 5.029,4.823 2.795,0 5.015,-2.124 5.015,-4.823"
             style="fill:#cc1417;fill-opacity:1;fill-rule:nonzero;stroke:none"
             id="path26"
             inkscape:connector-curvature="0" /></g><g
           id="g28"
           transform="translate(65.3356,25.8038)"><path
             d="M 0,0 3.508,-6.961 7.002,0 l 1.343,0 0,-9.592 -1.014,0 -0.014,7.975 -3.494,-6.961 -0.657,0 -3.48,6.961 0,-7.975 -1.042,0 0,9.592 L 0,0 Z"
             style="fill:#cc1417;fill-opacity:1;fill-rule:nonzero;stroke:none"
             id="path30"
             inkscape:connector-curvature="0" /></g><g
           id="g32"
           transform="translate(83.174,22.5562)"><path
             d="m 0,0 c 0,1.466 -1.001,2.233 -2.728,2.233 l -2.466,0 0,-4.522 2.466,0 C -1.001,-2.289 0,-1.507 0,0 m 1.055,0.027 c 0,-2.11 -1.37,-3.329 -3.741,-3.329 l -2.508,0 0,-3.042 -1.097,0 0,9.592 3.605,0 c 2.371,0 3.741,-1.179 3.741,-3.221"
             style="fill:#cc1417;fill-opacity:1;fill-rule:nonzero;stroke:none"
             id="path34"
             inkscape:connector-curvature="0" /></g><g
           id="g36"
           transform="translate(87.4318,25.8038)"><path
             d="m 0,0 0,-8.578 4.206,0 0,-1.014 -5.303,0 0,9.592 L 0,0 Z"
             style="fill:#cc1417;fill-opacity:1;fill-rule:nonzero;stroke:none"
             id="path38"
             inkscape:connector-curvature="0" /></g><g
           id="g40"
           transform="translate(100.214,25.8038)"><path
             d="m 0,0 0,-1.014 -5.412,0 0,-3.22 4.837,0 0,-1 -4.837,0 0,-3.344 5.591,0 0,-1.014 -6.688,0 0,9.592 L 0,0 Z"
             style="fill:#cc1417;fill-opacity:1;fill-rule:nonzero;stroke:none"
             id="path42"
             inkscape:connector-curvature="0" /></g><g
           id="g44"
           transform="translate(108.966,25.8038)"><path
             d="m 0,0 0,-1.014 -3.138,0 0,-8.578 -1.096,0 0,8.578 -3.124,0 0,1.014 L 0,0 Z"
             style="fill:#cc1417;fill-opacity:1;fill-rule:nonzero;stroke:none"
             id="path46"
             inkscape:connector-curvature="0" /></g><g
           id="g48"
           transform="translate(117.3498,25.8038)"><path
             d="m 0,0 0,-1.014 -5.412,0 0,-3.22 4.837,0 0,-1 -4.837,0 0,-3.344 5.591,0 0,-1.014 -6.688,0 0,9.592 L 0,0 Z"
             style="fill:#cc1417;fill-opacity:1;fill-rule:nonzero;stroke:none"
             id="path50"
             inkscape:connector-curvature="0" /></g><path
           d="m 44.473,4.036 -1.836,0 0,9.592 1.836,0 0,-9.592 z"
           style="fill:#017fb7;fill-opacity:1;fill-rule:nonzero;stroke:none"
           id="path52"
           inkscape:connector-curvature="0" /><g
           id="g54"
           transform="translate(48.8571,13.6275)"><path
             d="m 0,0 4.946,-6.563 0,6.563 1.782,0 0,-9.592 -1.741,0 -4.932,6.55 0,-6.55 -1.795,0 L -1.74,0 0,0 Z"
             style="fill:#017fb7;fill-opacity:1;fill-rule:nonzero;stroke:none"
             id="path56"
             inkscape:connector-curvature="0" /></g><g
           id="g58"
           transform="translate(64.9801,13.6275)"><path
             d="m 0,0 0,-1.631 -2.987,0 0,-7.961 -1.85,0 0,7.961 -2.987,0 0,1.631 L 0,0 Z"
             style="fill:#017fb7;fill-opacity:1;fill-rule:nonzero;stroke:none"
             id="path60"
             inkscape:connector-curvature="0" /></g><g
           id="g62"
           transform="translate(73.5973,13.6275)"><path
             d="m 0,0 0,-1.604 -5.193,0 0,-2.37 4.658,0 0,-1.603 -4.658,0 0,-2.412 5.357,0 0,-1.603 -7.193,0 0,9.592 L 0,0 Z"
             style="fill:#017fb7;fill-opacity:1;fill-rule:nonzero;stroke:none"
             id="path64"
             inkscape:connector-curvature="0" /></g><g
           id="g66"
           transform="translate(77.7458,13.6275)"><path
             d="m 0,0 0,-7.934 4.138,0 0,-1.658 -5.974,0 0,9.592 L 0,0 Z"
             style="fill:#017fb7;fill-opacity:1;fill-rule:nonzero;stroke:none"
             id="path68"
             inkscape:connector-curvature="0" /></g><g
           id="g70"
           transform="translate(85.4445,13.6275)"><path
             d="m 0,0 0,-7.934 4.138,0 0,-1.658 -5.974,0 0,9.592 L 0,0 Z"
             style="fill:#017fb7;fill-opacity:1;fill-rule:nonzero;stroke:none"
             id="path72"
             inkscape:connector-curvature="0" /></g><path
           d="m 93.142,4.036 -1.836,0 0,9.592 1.836,0 0,-9.592 z"
           style="fill:#017fb7;fill-opacity:1;fill-rule:nonzero;stroke:none"
           id="path74"
           inkscape:connector-curvature="0" /><g
           id="g76"
           transform="translate(102.2941,8.8043)"><path
             d="m 0,0 1.603,0 0,-3.604 c -0.987,-0.74 -2.466,-1.247 -3.795,-1.247 -2.865,0 -5.071,2.124 -5.071,4.878 0,2.754 2.247,4.851 5.18,4.851 1.384,0 2.795,-0.534 3.754,-1.37 L 0.63,2.165 c -0.727,0.671 -1.74,1.083 -2.713,1.083 -1.85,0 -3.303,-1.412 -3.303,-3.221 0,-1.822 1.467,-3.234 3.317,-3.234 0.657,0 1.411,0.233 2.069,0.603 L 0,0 Z"
             style="fill:#017fb7;fill-opacity:1;fill-rule:nonzero;stroke:none"
             id="path78"
             inkscape:connector-curvature="0" /></g><g
           id="g80"
           transform="translate(113.3351,13.6275)"><path
             d="m 0,0 0,-1.604 -5.193,0 0,-2.37 4.659,0 0,-1.603 -4.659,0 0,-2.412 5.357,0 0,-1.603 -7.193,0 0,9.592 L 0,0 Z"
             style="fill:#017fb7;fill-opacity:1;fill-rule:nonzero;stroke:none"
             id="path82"
             inkscape:connector-curvature="0" /></g><g
           id="g84"
           transform="translate(117.3879,13.6275)"><path
             d="m 0,0 4.946,-6.563 0,6.563 1.782,0 0,-9.592 -1.741,0 -4.932,6.55 0,-6.55 -1.795,0 L -1.74,0 0,0 Z"
             style="fill:#017fb7;fill-opacity:1;fill-rule:nonzero;stroke:none"
             id="path86"
             inkscape:connector-curvature="0" /></g><g
           id="g88"
           transform="translate(131.1008,12.0518)"><path
             d="m 0,0 c -1.81,0 -3.221,-1.398 -3.221,-3.179 0,-1.795 1.411,-3.193 3.221,-3.193 0.918,0 1.891,0.425 2.604,1.124 l 1.082,-1.206 c -0.987,-1 -2.398,-1.644 -3.783,-1.644 -2.822,0 -5.001,2.123 -5.001,4.891 0,2.741 2.206,4.837 5.071,4.837 1.37,0 2.767,-0.589 3.699,-1.534 L 2.604,-1.247 C 1.918,-0.48 0.945,0 0,0"
             style="fill:#017fb7;fill-opacity:1;fill-rule:nonzero;stroke:none"
             id="path90"
             inkscape:connector-curvature="0" /></g><g
           id="g92"
           transform="translate(143.6076,13.6275)"><path
             d="m 0,0 0,-1.604 -5.193,0 0,-2.37 4.658,0 0,-1.603 -4.658,0 0,-2.412 5.357,0 0,-1.603 -7.193,0 0,9.592 L 0,0 Z"
             style="fill:#017fb7;fill-opacity:1;fill-rule:nonzero;stroke:none"
             id="path94"
             inkscape:connector-curvature="0" /></g><g
           id="g96"
           transform="translate(21.5439,10.0717)"><path
             d="m 0,0 c -2.937,-2.937 -7.717,-2.937 -10.654,0 -2.937,2.937 -2.937,7.717 0,10.654 1.089,1.089 2.432,1.772 3.839,2.054 l 0,5.305 c -2.761,-0.321 -5.436,-1.535 -7.55,-3.648 -4.983,-4.984 -4.983,-13.092 0,-18.076 4.984,-4.983 13.092,-4.983 18.076,0 2.113,2.113 3.327,4.789 3.648,7.55 l -5.305,0 C 1.772,2.432 1.089,1.089 0,0"
             style="fill:#017fb7;fill-opacity:1;fill-rule:nonzero;stroke:none"
             id="path98"
             inkscape:connector-curvature="0" /></g><g
           id="g100"
           transform="translate(28.7038,19.9418)"><path
             d="m 0,0 c 0,-1.449 -1.175,-2.624 -2.624,-2.624 -1.449,0 -2.624,1.175 -2.624,2.624 0,1.449 1.175,2.624 2.624,2.624 C -1.175,2.624 0,1.449 0,0"
             style="fill:#cc1417;fill-opacity:1;fill-rule:nonzero;stroke:none"
             id="path102"
             inkscape:connector-curvature="0" /></g></g></g></g></svg>